# xmcd
#
# Track frame offsets: 
#        150
#        11815
#        25057
#        35772
#        49227
#        67165
#        84592
#        103020
#        117902
#        130042
#
# Disc length: 1913 seconds
#
# Revision: 0
# Processed by: cddbd v1.5.2PL0 Copyright (c) Steve Scherf et al.
# Submitted via: ExactAudioCopy v0.95b4
#
DISCID=8707770a
DTITLE=Dustin Neighbors - Circle Of Friends
DYEAR=2007
DGENRE=Country
TTITLE0=I Only Want To Dance With You
TTITLE1=Giving Away My Money
TTITLE2=Wishing Well
TTITLE3=The I Love You Days Are Gone
TTITLE4=Carolina Lights
TTITLE5=A Little Bit Longer
TTITLE6=Walking By Faith
TTITLE7=Love Ain't Never Hurt No One
TTITLE8=Are There Any More At Home That Look Like You
TTITLE9=Singer
EXTD=
EXTT0=
EXTT1=
EXTT2=
EXTT3=
EXTT4=
EXTT5=
EXTT6=
EXTT7=
EXTT8=
EXTT9=
PLAYORDER=
